<?xml version="1.0" encoding="utf-8"?>
<!-- Generator: Adobe Illustrator 25.2.0, SVG Export Plug-In . SVG Version: 6.00 Build 0)  -->
<svg version="1.1" xmlns="http://www.w3.org/2000/svg" xmlns:xlink="http://www.w3.org/1999/xlink" x="0px" y="0px"
	 viewBox="0 0 792 1224" style="enable-background:new 0 0 792 1224;" xml:space="preserve">
<style type="text/css">
	.st0{stroke:#000000;stroke-width:0.9783;stroke-miterlimit:10;}
	.st1{stroke:#FFFFFF;stroke-width:5;stroke-miterlimit:10;}
	.st2{fill:none;}
	.st3{stroke:#FFFFFF;stroke-miterlimit:10;}
	.st4{font-family:'PTSerif-Regular';}
	.st5{font-size:150px;}
	.st6{fill:#FFFFFF;}
	.st7{font-family:'PTSerif-Bold';}
	.st8{font-size:33px;}
	.st9{font-size:200px;}
	.st10{font-family:'PTSerif-BoldItalic';}
	.st11{font-size:540px;}
</style>
<g id="Layer_1">
	<rect y="-7" class="st0" width="792" height="1234.4"/>
</g>
<g id="Layer_2">
	<rect x="126.6" y="211.8" class="st1" width="547.3" height="703.5"/>
	<rect x="558.2" y="14.9" class="st2" width="227.9" height="173"/>
	<text transform="matrix(0 1 -1 0 673.3027 14.9365)" class="st3 st4 st5">Q</text>
	<rect x="22.8" y="14.9" class="st2" width="46.1" height="134.3"/>
	<text transform="matrix(0 -1 1 0 47.5967 149.209)" class="st6 st7 st8">PT Serif</text>
	<rect x="213.4" y="184.4" class="st2" width="202.7" height="241.4"/>
	<text transform="matrix(1 0 0 1 213.3632 334.8032)" class="st6 st7 st9">Q</text>
	<rect x="-20.9" y="1013.6" class="st2" width="245.9" height="169.9"/>
	<text transform="matrix(0 -1 1 0 129.4556 1183.5762)" class="st3 st7 st9">q</text>
	<rect x="582.1" y="1004.1" class="st2" width="347.5" height="439.7"/>
	<text transform="matrix(1 0 0 1 582.062 1154.5332)" class="st3 st7 st9">Q</text>
	<rect x="398.6" y="363" class="st2" width="180.9" height="227.9"/>
	<text transform="matrix(1 0 0 1 398.5933 513.3638)" class="st6 st10 st9">q</text>
	<rect x="400.3" y="553.4" class="st2" width="180.9" height="227.9"/>
	<text transform="matrix(1 0 0 1 400.2854 703.7633)" class="st6 st10 st9">q</text>
	<rect x="400.3" y="743.8" class="st2" width="180.9" height="227.9"/>
	<text transform="matrix(1 0 0 1 400.2854 894.1627)" class="st6 st10 st9">q</text>
	<rect x="99.1" y="153.3" class="st2" width="180.9" height="227.9"/>
	<text transform="matrix(1 0 0 1 99.1225 303.7275)" class="st6 st4 st9">q</text>
	<rect x="398.6" y="170.3" class="st2" width="180.9" height="227.9"/>
	<text transform="matrix(1 0 0 1 398.5933 320.6958)" class="st6 st10 st9">q</text>
	<rect x="506.4" y="182.7" class="st2" width="184.3" height="169.1"/>
	<text transform="matrix(0 1 -1 0 577.873 182.6963)" class="st6 st4 st5">Q</text>
	<rect x="506.6" y="298.7" class="st2" width="184.3" height="169.1"/>
	<text transform="matrix(0 1 -1 0 578.1201 298.7206)" class="st6 st4 st5">Q</text>
	<rect x="506.5" y="529.9" class="st2" width="184.3" height="169.1"/>
	<text transform="matrix(0 1 -1 0 577.9561 529.9394)" class="st6 st4 st5">Q</text>
	<rect x="507.1" y="870.6" class="st2" width="184.3" height="169.1"/>
	<text transform="matrix(0 1 -1 0 578.5869 870.6242)" class="st6 st4 st5">Q</text>
	<rect x="213.4" y="383.8" class="st2" width="202.7" height="241.4"/>
	<text transform="matrix(1 0 0 1 213.3633 534.2241)" class="st6 st7 st9">Q</text>
	<rect x="204.2" y="773.7" class="st2" width="202.7" height="241.4"/>
	<text transform="matrix(1 0 0 1 204.1919 924.1385)" class="st6 st7 st9">Q</text>
	<rect x="213.4" y="586.2" class="st2" width="202.7" height="241.4"/>
	<text transform="matrix(1 0 0 1 213.3632 736.5588)" class="st6 st7 st9">Q</text>
	<rect x="506.2" y="754.8" class="st2" width="184.3" height="169.1"/>
	<text transform="matrix(0 1 -1 0 577.6689 754.8282)" class="st6 st4 st5">Q</text>
	<rect x="175.1" y="306.5" class="st2" width="457.1" height="544.5"/>
	<text transform="matrix(1 0 0 1 175.0585 712.5757)" class="st3 st7 st11">Q</text>
	<rect x="99.1" y="320.7" class="st2" width="180.9" height="227.9"/>
	<text transform="matrix(1 0 0 1 99.1224 471.0957)" class="st6 st4 st9">q</text>
	<rect x="99.1" y="487.8" class="st2" width="180.9" height="227.9"/>
	<text transform="matrix(1 0 0 1 99.1224 638.2294)" class="st6 st4 st9">q</text>
	<rect x="99.1" y="654" class="st2" width="180.9" height="227.9"/>
	<text transform="matrix(1 0 0 1 99.1224 804.4357)" class="st6 st4 st9">q</text>
	<rect x="99.1" y="820.2" class="st2" width="180.9" height="227.9"/>
	<text transform="matrix(1 0 0 1 99.1224 970.6274)" class="st6 st4 st9">q</text>
	<rect x="505.3" y="641.4" class="st2" width="184.3" height="169.1"/>
	<text transform="matrix(0 1 -1 0 576.752 641.3596)" class="st6 st4 st5">Q</text>
	<rect x="506.5" y="415.1" class="st2" width="184.3" height="169.1"/>
	<text transform="matrix(0 1 -1 0 578.0381 415.1212)" class="st6 st4 st5">Q</text>
	<rect x="68.9" y="16.4" class="st2" width="46.1" height="134.3"/>
	<text transform="matrix(0 -1 1 0 93.6904 120.8555)" class="st6 st7 st8">2010</text>
</g>
</svg>
