<?xml version="1.0" encoding="utf-8"?>
<!-- Generator: Adobe Illustrator 25.2.0, SVG Export Plug-In . SVG Version: 6.00 Build 0)  -->
<svg version="1.1" xmlns="http://www.w3.org/2000/svg" xmlns:xlink="http://www.w3.org/1999/xlink" x="0px" y="0px"
	 viewBox="0 0 792 1224" style="enable-background:new 0 0 792 1224;" xml:space="preserve">
<style type="text/css">
	.st0{fill:none;stroke:#000000;stroke-width:0.5;stroke-miterlimit:10;}
	.st1{fill:none;stroke:#000000;stroke-width:0.75;stroke-miterlimit:10;}
	.st2{stroke:#000000;stroke-width:0.5;stroke-miterlimit:10;}
	.st3{fill:none;}
	.st4{fill:#FFF200;stroke:#000000;stroke-width:0.75;stroke-miterlimit:10;}
	.st5{fill:#FFFFFF;stroke:#000000;stroke-width:0.75;stroke-miterlimit:10;}
	.st6{fill:#FFFFFF;}
	.st7{fill:#FFFCD5;stroke:#000000;stroke-width:0.75;stroke-miterlimit:10;}
	.st8{fill:none;stroke:#000000;stroke-width:5;stroke-miterlimit:10;}
	.st9{stroke:#000000;stroke-width:0.75;stroke-miterlimit:10;}
	.st10{fill:none;stroke:#000000;stroke-width:2;stroke-miterlimit:10;}
	.st11{fill:none;stroke:#000000;stroke-width:2;stroke-miterlimit:10;stroke-dasharray:5.2474,5.2474;}
	.st12{fill:none;stroke:#000000;stroke-miterlimit:10;}
	.st13{fill:none;stroke:#000000;stroke-miterlimit:10;stroke-dasharray:2.9053,2.9053;}
	.st14{fill:none;stroke:#000000;stroke-miterlimit:10;stroke-dasharray:2.9704,2.9704;}
	.st15{fill:none;stroke:#000000;stroke-miterlimit:10;stroke-dasharray:1;}
	.st16{fill:none;stroke:#000000;stroke-miterlimit:10;stroke-dasharray:3;}
	.st17{fill:none;stroke:#000000;stroke-width:2;stroke-miterlimit:10;stroke-dasharray:5,5;}
	.st18{fill:none;stroke:#000000;stroke-width:3;stroke-miterlimit:10;stroke-dasharray:5,5;}
	.st19{fill:#FFFFFF;stroke:#000000;stroke-miterlimit:10;}
</style>
<g id="Layer_1">
	<line class="st0" x1="792" y1="1176.3" x2="496.6" y2="1175.7"/>
	<path class="st1" d="M348.4,373.8c-5-0.5-6.3,2.3-24.8,10.3c-14,6-24.8,9.4-39.6,14c-12.7,4-20.4,6.3-31.6,8.6
		c-16.8,3.4-28.1,3.7-31.3,3.8c-4.4,0.1-9,0.3-15.1-0.2c-4.5-0.4-5-0.8-10.2-1.1c-4.4-0.3-8.4-0.4-12.9-0.5c-2.8,0-5.2-0.1-6.8,0
		c-4.3,0-8.1,0.2-11.2,0.3c-7.3,0.3-9.6,0.5-10.8,2.3c-1,1.5-1,3.7,0,5.2c0.8,1.2,2.3,2,9.6,2.2c5.2,0.2,6.1-0.2,11.1-0.2
		c4.9,0,8.4,0.4,11.1,0.8c5,0.6,8.8,1,8.8,1.8c0,1.3-10.6,2.5-11.8,2.5c-1.2,0.1-1.5,0-2.6,0c-0.9,0-1.5,0-1.8,0
		c-2.8,0-7.2-1.5-10.3-0.3c-3.1,1.2-4.4,4.8-4.6,5.6c-0.5,1.5-0.4,3.6-0.1,7.6c0.2,2.6,0.4,4.3,0.9,7.8c0.8,5.8,1.1,6.7,1.6,7.8
		c0.6,1.1,1.6,3.2,3.9,4.4c1.9,1,3.7,1.1,4.7,1.1c9,0.1,14.6-1.1,14.6-1.1c6.1-1.4,8.6-2.3,14.9-4.1c3.4-0.9,7.1-1.8,14.3-3.6
		c16.7-4,25-6,28.6-6.7c10.5-1.9,18.3-2.5,30.6-3.5c9.8-0.7,18-1.1,24.9-1.2c30.7-0.8,68.5,0.3,79.5,0.6
		C370.4,386.8,357.9,374.8,348.4,373.8z"/>
	<path class="st1" d="M204.2,286.8c-1,2.1-2.6,3.4-3.9,4.2c-24,0-48.1,0-72.1,0c-0.5-0.2-1.7-0.8-2.7-2.1c-0.8-1.1-1-2.1-1.1-2.7
		V230c0-2.1-1.7-3.8-3.8-3.8H114c-2.1,0-3.8,1.7-3.8,3.8v57c0,2.1-1.7,3.8-3.8,3.8H30.3c-1.3,0-2.6-0.7-3.3-1.9
		c-2.7-4.9-3.4-12.3,0.3-17.3c3.9-5.2,11.5-7.3,18.8-4.9c1.7-1.2,3.5-2.4,5.2-3.6c0-57.5,0.1-114.9,0.1-172.4
		c4.4-31.8,29.6-55.4,58-57.1c33.2-1.9,64.5,26.7,65.7,64.7c0,55.5,0,111,0,166.4c1.8,1.2,3.5,2.3,5.3,3.5
		c7.2-2.6,14.9-1.4,19.6,3.3C203.3,274.9,206.7,281.5,204.2,286.8z"/>
	<path class="st0" d="M90.6,67.5c-6.9-0.3-12.8,7.6-12.4,15C78.6,89,83.9,96,90.6,95.7c6.4-0.3,10.7-7.2,11.1-13.1
		C102.1,75.6,97.2,67.8,90.6,67.5z"/>
	<path class="st2" d="M91.1,73.9c-4,2.9-3.9,10.7,0.3,13.5c2.2,1.4,5.4,1.4,7.5-0.2c4-3,3.5-11.1-0.8-13.7
		C96,72.4,93.1,72.5,91.1,73.9z"/>
	<path class="st0" d="M134.3,67.5c-6.9-0.3-12.8,7.6-12.4,15c0.4,6.5,5.7,13.5,12.4,13.1c6.4-0.3,10.7-7.2,11.1-13.1
		C145.7,75.6,140.9,67.8,134.3,67.5z"/>
	<path class="st2" d="M134.8,73.9c-4,2.9-3.9,10.7,0.3,13.5c2.2,1.4,5.4,1.4,7.5-0.2c4-3,3.5-11.1-0.8-13.7
		C139.7,72.4,136.8,72.5,134.8,73.9z"/>
	<path class="st1" d="M175.1,137.2c0.8-0.1,2-0.4,3.5-0.7c4-0.9,6.9-1.7,16.5-5.1c13-4.6,17.1-6.4,19.5-7.6c0,0,7.7-3.7,11.5-7.7
		c0.6-0.6,1.3-1.4,2.3-2.4c2-2.1,3.4-3.4,3.6-3.6c4.1-3.9,4.9-4.1,5.6-4c1.1,0.1,2.3,0.7,2.6,1.7c0.5,1.5-1.3,3.4-3.1,5.1
		c-3.2,3.1-6.3,4.6-6.2,4.7c0.1,0.1,1.8-0.6,4.9-2.1c4.7-2.3,5.2-2.9,7.8-4.1c2.5-1.1,5.1-2.3,8.6-2.4c2.6-0.1,6.3-0.2,9,2.5
		c2.7,2.7,3.1,7.1,1.9,10.3c-0.9,2.3-2.4,3.5-5.4,5.9c-3.9,3-7.5,4.5-9.3,5.3c-2.3,0.9-5.7,2.1-10.1,3.6c-0.1,0-0.2,0.1-0.3,0.1
		c-22.4,7.7-36.1,14.9-36.1,14.9l0,0c-10.5,5.4-19.5,11.3-27,17.9"/>
	<path class="st0" d="M94.5,125.8c13,0.2,26,0.4,39.1,0.5c0.1,2.2,0.2,7.5-3.4,10.9c-3.2,3-7.9,2.5-17.2,1.6
		c-9.4-1-14.8-1.6-17.3-5.8C94.1,130.5,94.2,127.8,94.5,125.8z"/>
	<path class="st3" d="M220.2,84.5"/>
	<path class="st4" d="M256.3,83.2c-0.8,0.1-1.6,0.1-2.4,0.2c0.3,1.9,0.7,4.6,0.3,8c0,0-0.1,1.2-0.3,2.4c-0.6,3.4-2.7,9.1-6.6,13.7
		c-1.2,1.5-6.5,7.5-14.4,8.8c-5.4,0.9-17.7,0.6-21.8,0.9c-0.4,0-1.3,0.1-1.7,0.9c-0.6,1.1,0.4,3,0.7,3.7c1.5,2.9,8.1,7.5,18.5,7.2
		c3.1-0.1,20.9-0.5,28.6-15.6c3-5.9,5.4-15.7,2.5-19.5c-0.4-0.6-1.2-1.2-1.9-2.7C256.3,88.5,256.2,85.4,256.3,83.2z"/>
	<path class="st1" d="M255.5,101c-0.6,2.6-2.2,7.7-6.3,12.4c-5.5,6.3-11.9,7.5-14.1,7.8"/>
	<path class="st1" d="M230.8,121.9c-2.6,0.4-5.9,0.6-9.5,0c-1.3-0.2-2.6-0.5-3.7-0.8"/>
	<path class="st1" d="M506.7,179.2c2.2-0.4,5.5-1,9.3-1.8c10.8-2.3,18.7-4.6,44.5-13.7c35-12.3,46.1-17.3,52.7-20.5
		c0,0,20.7-9.9,31-20.8c1.6-1.6,3.5-3.7,6.2-6.5c5.5-5.7,9.1-9.1,9.8-9.8c11-10.5,13.3-10.9,15.1-10.8c2.9,0.2,6.1,2,7,4.6
		c1.4,4.2-3.6,9.1-8.2,13.7c-8.6,8.4-16.9,12.4-16.7,12.8c0.2,0.4,4.9-1.5,13.3-5.6c12.7-6.2,14-7.9,21-11c6.7-3,13.8-6.1,23.1-6.4
		c7.1-0.2,17-0.6,24.2,6.7c7.3,7.4,8.3,19.3,5.1,27.7c-2.3,6.2-6.5,9.5-14.7,15.8c-10.4,8.1-20.2,12.2-25,14.2
		c-6.1,2.5-15.5,5.7-27.2,9.8c-0.2,0.1-0.4,0.1-0.7,0.2c-60.5,20.9-97.4,40.1-97.4,40.1l0,0c-28.4,14.5-52.6,30.6-72.7,48.3"/>
	<path class="st3" d="M406.4,72.1"/>
	<path class="st4" d="M725.9,33.7c-2.1,0.2-4.3,0.4-6.4,0.5c0.9,5,1.8,12.5,0.9,21.5c0,0-0.3,3.2-0.9,6.5c-1.7,9-7.3,24.5-17.9,37.1
		c-3.3,4-17.4,20.2-38.9,23.8c-14.6,2.5-47.7,1.6-58.7,2.5c-1,0.1-3.6,0.3-4.7,2.4c-1.6,3.1,1,8.2,2,10c4,7.8,21.9,20.1,50,19.3
		c8.3-0.2,56.5-1.5,77.2-42c8.1-15.9,14.5-42.4,6.7-52.6c-1.2-1.5-3.1-3.4-5.2-7.3C725.9,47.8,725.6,39.5,725.9,33.7z"/>
	<path class="st1" d="M723.6,81.5c-1.7,6.9-6,20.9-17,33.3c-14.8,17-32.2,20.2-38,21"/>
	<path class="st1" d="M657.1,138.1c-7.1,1.1-15.9,1.5-25.7,0c-3.6-0.5-7-1.3-10.1-2.2"/>
	<line class="st1" x1="245.3" y1="140.5" x2="439.4" y2="290.1"/>
	<line class="st1" x1="245.3" y1="77.4" x2="445" y2="14.9"/>
	<path class="st1" d="M12.7,435.8c23.8,17.6,49.5,33.8,77.3,47.9c1.1,0.6,2.2,1.1,3.3,1.7c0,0,0,0,0,0c0,0,9,4.2,17.1,7.1
		c6.6,2.4,13.8,3.4,28.2,5.4c-1.4-0.2,7.2,1.4,24.5,4.6c4.8,0.9,10.2,1.9,11.8,5.8c0.8,1.9,0.7,4.4-0.5,6.1
		c-1.7,2.5-5.6,3.5-16.8,2.1c-14.3-1.8-24.8-5.5-24.9-5.1c-0.1,0.3,6.8,2.6,16.7,7c6,2.7,5.5,2.6,9.2,4.2c9.3,4,11.1,4.7,12.5,5.4
		c0.7,0.3,1,0.5,1.3,0.7c0.3,0.2,11.6,7.5,10.9,15.5c-0.2,2.9-2.6,5.2-7.3,9.9c-2.7,2.7-7.3,7.2-14.7,11.2
		c-6.8,3.7-12.5,5.1-15.9,5.8c-16.1,3.8-24.5-0.2-25.5-0.9c0,0-0.8-0.6-1.8-1.3c-0.5-0.3-1.1-0.8-1.8-1.3c-2.3-1.7-5.7-4-9.7-6.6
		c0,0-0.3-0.2-0.7-0.4c-5.4-3.4-70.7-40.3-91.7-52.1C13.8,484.3,13.2,460,12.7,435.8z"/>
	<path class="st3" d="M89.8,437"/>
	<path class="st4" d="M164.7,409.6c-2,1.1-3.9,2.3-5.9,3.4c3.1,4.4,7.4,11.2,10.6,20.2c0,0,1.2,3.2,2,6.6c2.5,9.4,4,26.7-0.5,43.5
		c-1.4,5.3-7.6,27.2-26.4,40.3c-12.8,8.9-44.9,23-55,28.9c-1,0.6-3.3,2-3.4,4.4c-0.2,3.7,4.7,7.4,6.4,8.7c7.4,5.6,30,9.4,56.5-4
		c7.9-4,53.4-26.9,54.9-74.9c0.6-18.8-5.2-47-17.3-53.3c-1.8-0.9-4.5-1.8-8.2-4.6C171.1,423.1,167,415.3,164.7,409.6z"/>
	<path class="st1" d="M184.1,456.4c1.5,7.4,3.6,22.7-1.2,39.5c-6.6,22.9-21.7,33.8-26.9,37.2"/>
	<path class="st1" d="M146,540.4c-6.3,4.2-14.5,8.6-24.5,11.6c-3.7,1.1-7.3,1.9-10.6,2.5"/>
	<path class="st5" d="M164.8,531.4c-11.4,3.6-51.1,19.4-48,33.5c1.2,5.6,8.4,8.3,11.5,9.4c14.1,5.3,27.8-3.6,37.3-9.8
		c8.4-5.5,17.7-11.4,17.7-20.3c0-4.8-2.7-10.6-7.4-12.9C171.8,529.3,167.4,530.5,164.8,531.4z"/>
	<line class="st1" x1="174.7" y1="418.4" x2="161.7" y2="418.4"/>
	<path class="st5" d="M178.5,427.3c-0.9-1.3-2.8-4-6.2-4.5c-2.3-0.3-4.8,0.5-6.5,2c-3.2,2.9-2.8,7.7-2.1,15.8
		c0.8,8,1.2,12.1,4.5,14.8c2.1,1.7,6,3.3,9.5,1.9c2.3-0.9,3.5-2.7,3.9-3.3c1.5-2.4,1.2-5.5,0.6-11.7c-0.4-3.9-0.9-6.2-1.1-7
		C180.4,431.3,180,429.4,178.5,427.3z"/>
	<path class="st6" d="M157.5,410.3c2.6-0.7,4.8-1,6.5-1.1c1.6-0.1,3.4-0.2,5.8,0.2c1.1,0.2,2,0.5,2.7,0.7c0.5,0.3,1.8,1.1,2.1,2.5
		c0.5,2.3-1.9,4.7-3.7,5.1c-0.3,0.1-0.8,0.2-1.4,0.2c-0.8,0.1-1.2,0.1-2.3,0c-0.4,0-1.1,0-2.5,0c-1.3,0-1.8,0-2.6,0
		c-0.6,0-1-0.1-1.2-0.1c-1.8-0.2-3.6-0.4-4.7-1.7c-0.9-1.1-1.2-2.9-0.4-4.3C156.3,411.1,157.1,410.6,157.5,410.3z"/>
	<path class="st1" d="M105.8,666.3c0.7,0.6,4.1,3.8,10.7,9.3c0,0,4.4,3.7,9.1,7.3c9.8,7.5,21.8,15.6,47.9,32.1
		c46.7,29.6,62.7,37.9,72.5,42.8l0,0c9.2,4,17.9,7.4,22.2,8.9c5.9,2.1,12.2,3.3,25,5.8c3.3,0.6,12.3,2.4,24.4,4.2
		c11.9,1.7,17.8,2.6,19.4,2.8c10.1,1,17.5,1.2,21.4,6c1.8,2.2,2.5,4.9,2.5,4.9c0.8,3,0.4,6.5-0.8,8.4c-2.7,4.2-11.5,2.9-29.5-0.2
		c-19.9-3.4-28.9-5.3-29.1-4.4c-0.2,0.8,7.7,3.1,23.5,10.2c8.8,3.9,8,3.8,12.9,5.9c13.2,5.6,15.6,6.6,17.6,7.6c1,0.5,1.4,0.8,1.8,1
		c5.9,3.4,13.5,11.2,13,18.9c-0.4,6.9-7.3,11.3-17.1,17.7c-4.4,2.9-5.9,3.2-16,8.3c-17.2,8.7-15.2,8.8-21.6,11.3
		c-6.6,2.6-21.8,8.5-32.1,2.3c-0.8-0.5-0.4-0.3-5.1-3.7c-3.3-2.3-8-5.6-13.7-9.2c-0.5-0.3-0.8-0.5-1-0.6
		c-80.1-51.5-136.5-76.9-136.6-76.9l0,0c-41.1-13.5-82.3-27-123.4-40.5C78.6,675,100.8,662.5,105.8,666.3z"/>
	<path class="st3" d="M324,749"/>
	<path class="st4" d="M370.3,694.8c-4.9,1.2-2.9,16-15.1,60c-0.5,2-0.8,2.9-1.1,3.8c-3.3,11.1-12.9,36.8-36.2,53
		c-18.1,12.5-63.2,32.4-77.4,40.6c-1.4,0.8-4.7,2.8-4.8,6.2c-0.3,5.1,6.6,10.4,9,12.2c10.4,7.9,42.2,13.2,79.5-5.7
		c1.6-0.8,4.2-2.1,7.6-4c26.3-14.7,69.5-53.4,69.7-101.4C401.7,723.6,377.8,692.9,370.3,694.8z"/>
	<path class="st1" d="M334,824.9"/>
	<path class="st1" d="M373.7,717c2.1,10.4,5.1,31.9-1.7,55.6"/>
	<path class="st5" d="M346.5,822.4c-15.3,4.1-71.8,27-67.6,47.2c1.2,5.8,7.1,9.2,8.8,10.2c4.9,2.8,12.7,4.6,33.1-2.9
		c32-11.7,49.4-29.4,52-39.5c0.3-1.3,1.2-4.5-0.3-7.7c-2.1-4.8-7.9-6.5-10.3-7.2C355,820.3,348.6,821.9,346.5,822.4z"/>
	<path class="st7" d="M360.3,687.6c-1.6,1.9-1.9,4-2.2,5.5c-0.5,3.1,0.1,5.3,0.7,8.3c0.7,3.6,0.9,7.4,1.5,11.1
		c0.8,4.8,1,12.7-1.5,26.5c6.5,3.3,33,16.5,39.8,8.6c0.6-0.7,1.7-2.4,0.3-13.6c-1.5-12.3-3.4-23.9-10.9-36.5
		c-1.2-2-5.3-8.7-12.7-12.3c-2.7-1.3-4.9-1.7-7.1-1.5C367.3,683.8,363,684.1,360.3,687.6z"/>
	<path class="st4" d="M339.7,820c-1.9-1.4-3.8-2.9-5.7-4.3c4.1-4.6,9.7-11.7,14.6-21.3c0,0,0.4-0.9,1.1-2.2c0.6-1.1,1.4-2.8,2.2-4.9
		c1.2-3.2,2-6.3,3.2-14.1c0.7-4.8,1.2-8.3,1.7-13.3c0.3-3.4,0.4-6.4,1-13.2c0.6-6.7,0.7-7.1,1-7.7c0.6-1.1,2.8-4.7,17.4-6.7
		c11.9-1.6,19.2-2.6,22.8,1.7c1.5,1.8,1.8,4.8,2.3,10.8c0.4,4,0.7,8-0.1,13.1c-1.5,9.8-6,16.5-8.1,19.4c-1.9,2.7-5.4,7.2-10.9,11.4
		c-9.9,7.5-16,6.4-24.7,11.5C352.2,803.3,345.4,808.9,339.7,820z"/>
	<path class="st1" d="M668.3,839.8c4.2-35.9,5.6-49,5.6-50.7c0,0,0.1-2.9,0.1-3c0,0,0.2-19.3-5-31.1c-0.8-1.8-1.8-4-3.1-7.1
		c-2.7-6.3-4.2-10.2-4.5-11.1c-4.6-12.3-4-14.1-3.1-15.4c1.4-2.1,4.5-3.9,7.3-3.5c4.3,0.6,6.7,6.2,8.7,11.4
		c3.8,9.6,3.7,17.4,4.2,17.4c0.4,0,0.8-4.3,0.8-12.1c0-11.9-1-13.5-0.7-20c0.3-6.2,0.6-12.6,4.4-19.7c2.9-5.4,7-13,16.8-15.6
		c9.9-2.6,21.1,1.1,27.3,6.7c4.6,4.1,5.7,8.5,7.8,17c2.7,10.9,2.1,19.7,1.7,24.1c-0.4,5.5-1.7,13.8-3.2,24.1c0,0.2-0.1,0.4-0.1,0.6
		c-7.9,53.3-6.9,88.2-6.9,88.3v0"/>
	<path class="st1" d="M78.7,1208.7c22.2,0,44.3-0.1,66.5-0.1c-0.2-4.3-0.4-7.8-0.5-10.1c0,0-2-40.9-0.8-50.1c0-0.2,0.2-1.5,0.2-3.3
		c0,0,0,0,0,0c0-17.2,8.8-34.4,8.8-34.4c1.2-2.3,1.2-2,4.2-7.6c3.8-7,3.2-6.3,6.2-12c3.7-7,6.9-12.3,5.4-16.2
		c-0.1-0.4-0.3-0.7-0.3-0.7c-1.6-3.1-5.5-4.6-7.8-4.7c-4.9,0-8.5,6.9-10.9,11.8c-5.2,10.3-5.8,19.1-6.5,19
		c-0.7-0.1-0.1-8.8,0.4-13.6c0.2-2,0.4-3.8,1-9c1.3-10,1.6-11.4,1.8-13.3c0.2-2,1.3-12.3-2.9-22.6c-1.6-4-6-14.4-17.2-19.2
		c-10.7-4.6-23.3-2-31.3,4.7c-5.6,4.7-7.6,10.3-10.5,18.2c-4.2,11.5-4.4,21.4-4.4,26.9c-0.1,6.3,0.5,15.9,1.1,27.3
		c0,0.2,0,0.5,0,0.7c1.9,33.1-0.9,91.4-1.4,99.5l0,0C79.4,1205.5,79.1,1208.2,78.7,1208.7z"/>
	<path class="st7" d="M705.7,661.9c-0.8,1-1,2.1-1.2,2.9c-0.3,1.6,0,2.8,0.4,4.4c0,0,0.3,1.4,0.8,5.9c0.3,2.6,0.2,4.3,0,7.7
		c-0.1,2.1-0.5,7.9-2.4,14.9c-0.1,0.2-0.3,1-0.5,2c-1.5,5.2-3.3,11.3-6.9,16.8c-2.8,4.2-5.8,6.7-10.8,10.8c-4,3.3-7.9,5.6-8.5,6
		c-3.1,1.9-4.4,2.3-13.2,6.5c-13.1,6.2-6.6,3.5-13.2,6.5c-6.7,3.1-9.3,4-9.5,6c-0.4,2.9,4.5,5.8,5.5,6.4c14.7,8.6,36.6-1.9,40.7-3.8
		c2.3-1.1,4-2,4.6-2.4c17.4-10,33.7-29.7,35.7-52.3c0.7-8.3-0.6-15.3-1.2-18.2c-0.5-2.7-1.9-8.7-5.6-14.7c0,0-2.8-4.6-6.7-6.5
		c-1.4-0.7-2.6-0.9-3.8-0.8C709.4,659.9,707.2,660.1,705.7,661.9z"/>
	<path class="st4" d="M81.1,1015.5c1.4-0.7,2.8-1.4,4.2-2.1c1.8,6.4,4.7,11.5,9.2,13c1.7,0.5,2.5,0.2,4.2,0.8
		c6.1,1.8,9,9.1,10.1,11.8c4.8,11.6,13.5,21.1,19.5,32.2c14.4,26.5,14.5,26.6,15.3,28.5c4.9,11.6,12.6,33.9,8.2,36.4
		c-4.9,2.8-23.1-20.5-25.4-23.5c-4.8-6.1-4.5-6.7-17.4-25.8c-7.3-10.8-8.8-12.7-13.1-19.5c-4.5-7.2-10-16.5-11.9-28.9
		c-0.2-1.4-0.5-3.5-0.6-6.3c1.1-1.2,2.3-2.3,3.4-3.5C84.9,1024.2,83,1019.9,81.1,1015.5z"/>
	<path class="st4" d="M170.8,1090c-2.5-4.9-5.2-8.2-8.4-12.3c-1.9-2.4-3.7-4.4-5.4-6.2c-7.3-7.5-14-12.7-18.3-16.1
		c-20.7-16.5-24.5-27.7-38.1-28.5c-1.6-0.1-2.9,0-3.7,0c1.4,0.3,3.7,0.9,5.8,2.5c1.4,1.1,2.6,2.4,4.6,6c2.3,4.1,2.7,5.8,4.3,9.1
		c1.2,2.5,2.8,4.9,6,9.8c2.4,3.7,4.8,7,7.2,10.8c0.8,1.2,1.8,2.9,2.9,4.8c0.3,0.5,0.7,1.3,1,1.8c0.8,1.5,1.5,2.7,1.9,3.5
		c1.4,2.2,2.7,3.9,3.7,5.2c1.1,1.4,3.4,4.1,6.6,7c1.3,1.2,1.3,1.1,2.8,2.4c1.3,1.2,3,2.9,4.8,4.8c1.1,1.2,1.9,2.1,3.1,3.6
		c0,0,3.6,4.4,6.6,8.5c8.8,11.9,13.2,23.1,16.1,22.4C177.9,1128.2,179.6,1107.4,170.8,1090z"/>
	<path class="st4" d="M109.8,1126.7c-1.2-4.9-2.2-10.6-2.2-10.6c-0.3-1.9-0.6-3.1-0.8-4.7c-0.7-5.2-0.7-9.1-0.7-10.5
		c0-3.3-0.6-8.2-1.8-17.9c-0.1-1.1-0.3-2.1-0.4-3.2c-1-1.5-2.6-4.1-4.6-7.3c-5-7.8-6.4-10-8.6-14c-2-3.7-3.1-5.9-3.9-8.2
		c-0.4-1.1-1.3-3.4-1.9-6.3c-1.6-7.1-0.7-11.8-1.4-11.9c-0.4-0.1-1.4,1.8-3.6,10.6c0,1.9,0,4.7,0.1,8.2c0.6,14.4,2.7,16.4,3.3,27.8
		c0.6,10.1-0.7,13.2,0.5,24.5c0.3,2.5,0.6,5.2,1.3,8.2c1,5.1,1.9,9.3,4,14.4c7.6,18,24.5,30.1,27.6,27.8
		C118.9,1151.7,113.2,1141.2,109.8,1126.7z"/>
	<line class="st8" x1="79.8" y1="982" x2="102.6" y2="1001.6"/>
	<line class="st8" x1="165.9" y1="932.5" x2="99.6" y2="1001.6"/>
	<ellipse class="st8" cx="595.6" cy="966.8" rx="37.1" ry="38.1"/>
	<line class="st8" x1="569.2" y1="993.6" x2="621.5" y2="939.4"/>
	<ellipse class="st9" cx="277.9" cy="1120.5" rx="44" ry="7.9"/>
	<path class="st1" d="M233.9,1120.5l8.5,83.6c6.9,3.2,20.3,8.3,37.8,7.9c15-0.4,26.6-4.8,33.3-7.9c2.8-27.9,5.7-55.7,8.5-83.6"/>
	<line class="st1" x1="461.3" y1="14.5" x2="765.9" y2="13.4"/>
	<line class="st1" x1="778.8" y1="17.4" x2="778.8" y2="292.7"/>
	<line class="st1" x1="766.5" y1="292.7" x2="462.7" y2="292.7"/>
	<path class="st1" d="M1085.3,534.6"/>
	<line class="st1" x1="453.6" y1="16.9" x2="453.6" y2="292.1"/>
	<path class="st9" d="M334,815.7c1.6-1.8,3.2-3.6,4.8-5.4c1.3,1.5,2.6,3,3.9,4.5l-3,5.3L334,815.7z"/>
	<polygon class="st9" points="719.5,34.2 725.9,33.7 725.8,38.5 720.3,39.4 	"/>
	<polyline class="st9" points="253.9,83.4 256.3,83.2 256.3,85.6 254.2,85.6 	"/>
	<g>
		<g>
			<path class="st10" d="M163.2,404.6c0.1-0.8,0.2-1.7,0.3-2.5"/>
			<path class="st11" d="M163.4,396.9c-1.5-13.2-12.4-23.8-28.3-18"/>
			<path class="st10" d="M132.7,379.9c-0.7,0.3-1.5,0.7-2.2,1.1"/>
			<g>
				<polygon points="127.3,371.5 119,389.6 138.8,387.8 				"/>
			</g>
		</g>
	</g>
	<line class="st1" x1="204.4" y1="397.3" x2="449.7" y2="325.4"/>
	<line class="st1" x1="204.4" y1="463.5" x2="449.7" y2="596.4"/>
	<line class="st1" x1="454.9" y1="324.8" x2="454.9" y2="597.2"/>
	<line class="st1" x1="461.1" y1="324.8" x2="772.7" y2="324.5"/>
	<line class="st1" x1="462" y1="597.2" x2="772.5" y2="597.2"/>
	<line class="st1" x1="778.7" y1="324.8" x2="778.7" y2="597.2"/>
	<path class="st1" d="M475.7,773.3c12.3,2.8,22.9,4.5,31,5.6c8,1.1,16.3,1.3,32.7,1.7c4.6,0.1,9.5,0.2,14.7-2.6
		c6.3-3.4,9.3-8.9,10.2-10.7c7.2-13.8-0.9-26,4.7-29.7c3.7-2.4,11.2,0.5,14.2,5.2c1.3,2,1.9,4.5,0.5,15.5
		c-1.9,14.7-4.2,19.3-1.8,21.5c2.2,1.9,5-0.7,14.6-0.9c6-0.1,9.3-0.1,12.5,1.6c8.2,4.6,8.4,18,8.5,23.1c0.1,5.5,0.4,13.5-5.3,20.3
		c-0.9,1.1-6.2,7.5-13.9,8.2c-3.6,0.3-6.6-0.8-17.8-1c-0.1,0-0.2,0-0.2,0c-9.8-0.2-33.7-1.5-42.3-1.9c-36.5-1.5-57.7,4.6-63.5,6.4
		l0,0c0,0,0,0,0,0C475,814.9,475.3,794.1,475.7,773.3z"/>
	<path class="st4" d="M588.8,481.8c3.5,21.9,3.3,61.6-10.6,98.9c-1.2,3.3-4.1,8.6-8,16.5c27.4,0,54.8,0,82.1,0c0-0.4,0-1,0-1.7
		c-1-87.4-19-119.5-27.6-125.1c-3.8-2.5-9.9-5.1-17.7-12.3c-15.3-14.2-22.8-32.7-26.8-46.3c-4.7,2.1-9.4,4.3-14.2,6.4
		c6.2,10.7,14.3,27,19.6,48.2C585.6,466.4,587.5,474,588.8,481.8z"/>
	<path class="st4" d="M592.2,601.5"/>
	<path class="st1" d="M613.9,522.5c2,14,1.9,25.7,1.3,34.2c-0.1,2.1-0.8,11-3.1,22.6c-1.5,7.2-3.1,13.4-4.6,18.2"/>
	<polygon class="st9" points="566,418.2 580.2,411.7 584,422.9 572,429.4 	"/>
	<path class="st5" d="M778.7,410.1c-0.8,0.2-2.1,0.4-3.7,0.7c-13.1,2.6-37.8,7.7-69.2,8.5c-9.8,0.2-19.9,0.7-33.4-0.5
		c-8.5-0.8-12.7-1.7-22.5-2.5c-12.1-1.1-22-1.1-28.5-1c-5,0-10.1-0.1-15.1-0.1c-2.2,0-5.5,0-9.4,0.1c-22.3,0.6-24.9,2.8-26,4.3
		c-2.9,3.7-2.9,10.2-0.1,13.7c1.3,1.6,3.6,3.1,22.6,3.5c4.2,0.1,7.8,0.1,10.2,0.1c8.2,0.6,16.4,1.1,24.6,1.7
		c16.1,1.9,19.5,3.2,19.4,4c0,1.1-8,1.4-23.6,2.7c-11.1,1-20.1,2-26.2,2.7c1.8,2.6,4.8,6.4,9.2,10.1c5.8,5,8.3,5.4,14.2,10.3
		c2.6,2.1,7.9,6.6,12.4,13.7c3.2,5.1,4.6,9.6,7.3,18.5c1.5,5,3.4,12.1,5,20.7c9.6-4,17.3-7.3,22.3-9.5c18.5-7.9,26.5-11.4,39.5-15.2
		c3.2-0.9,5.9-1.7,8.7-2.2c14.1-2.9,22.4-3.2,46.7-5.2c3.6-0.3,9-0.7,15.7-1.4C778.7,461.8,778.7,436,778.7,410.1z"/>
	<path class="st5" d="M932.5,361"/>
	<path class="st1" d="M537.7,461.3c2.4-4.9,8.9-6.5,10.5-6.9c3.3-0.6,6.6-1.1,9.8-1.7c7.5-0.9,15.1-1.8,22.6-2.7
		c1.5,5.1,3.1,10.1,4.6,15.2c-7.4,0.7-15,1.7-22.9,3c-3,0.5-5.9,1-8.7,1.5c-2.8,0.6-8.2,1.2-13-1.1c-2.9-1.4-3.5-2.9-3.6-3.4
		C536.6,463.7,537.4,462.1,537.7,461.3z"/>
	<g>
		<g>
			<path class="st12" d="M580.4,407.6c0.2-0.5,0.4-0.9,0.6-1.4"/>
			<path class="st13" d="M582,403.5c8.3-26-22.7-48-45.4-43.2"/>
			<path class="st12" d="M535.2,360.7c-0.5,0.1-1,0.3-1.4,0.4"/>
			<g>
				<polygon points="533.1,356.1 527.3,364.2 537.3,365.2 				"/>
			</g>
		</g>
	</g>
	<g>
		<g>
			<path class="st12" d="M543.8,473.8c-0.3,0.3-0.7,0.7-1,1.1"/>
			<path class="st14" d="M540.9,477.2c-5.4,8-6.9,22.4,16,45.3"/>
			<path class="st12" d="M558,523.5c0.4,0.3,0.7,0.7,1.1,1"/>
			<g>
				<polygon points="554.6,527.2 564.4,529.4 561.4,519.9 				"/>
			</g>
		</g>
	</g>
	<line class="st15" x1="584" y1="460.8" x2="585.2" y2="452"/>
	<path class="st16" d="M588.9,460.2"/>
	<path class="st16" d="M598.5,467.3"/>
	<path class="st16" d="M600.5,468.2"/>
	<path class="st16" d="M601.2,456.3"/>
	<path class="st16" d="M602.2,456.7"/>
	<path class="st16" d="M612,462.5"/>
	<path class="st16" d="M613.1,468"/>
	<path class="st16" d="M615,455.8"/>
	<line class="st15" x1="590.9" y1="458.1" x2="592.6" y2="448.5"/>
	<line class="st15" x1="590.9" y1="458.1" x2="585.2" y2="452"/>
	<line class="st15" x1="601.4" y1="452.9" x2="592.5" y2="448.9"/>
	<path class="st4" d="M660.5,604.6"/>
	<g>
		<g>
			<path class="st17" d="M335.3,821.8c-6.3,16.1-30.5,25.1-61.8,33.3"/>
			<g>
				<polygon points="273.8,844.7 259.6,858.6 278.7,864 				"/>
			</g>
		</g>
	</g>
	<g>
		<g>
			<path class="st18" d="M165.9,1048.8c45.2-63.4,105-70.4,111.7-4.4"/>
			<g>
				<polygon points="262.2,1040.5 278,1065.9 292.1,1039.5 				"/>
			</g>
		</g>
	</g>
	<path class="st12" d="M114.1,101"/>
	<path class="st12" d="M114.1,101"/>
	<path class="st19" d="M589.3,532.4c-2.8-0.7-5.2-2.7-7.7-6.5c-1.3-1.9-6.3-9.8-7.6-29.1c-0.8-12.2,0.6-18.1,3-22.4
		c1.6-3,3.5-4.8,5.3-6c0.6-0.4,5.7-3.5,10-2c4.8,1.6,6.3,8,8.3,16.5c0.8,3.5,1.9,9.3,2.2,23.8c0.4,18.6-1.1,21.6-3.3,23.4
		C596.9,532.4,592.8,533.3,589.3,532.4z"/>
	<path class="st1" d="M498.3,1216.9c-0.8-31.5-1.3-54.6-1.2-55.9c0.1-1.8,0.2-3.3,0.2-3.3c0,0,0,0,0,0c0,0,1.8-21.6,8.8-34.4
		c1.1-1.9,2.4-4.3,4.2-7.6c3.6-6.8,5.7-11,6.2-12c6.4-13.2,5.9-15.4,5.1-16.9c-1.4-2.5-4.6-4.8-7.8-4.7c-4.9,0.2-8.1,6.2-10.9,11.8
		c-5.3,10.4-5.9,19.1-6.5,19c-0.5,0-0.5-4.9,0.4-13.6c1.3-13.3,2.5-15.1,2.8-22.3c0.3-6.9,0.6-14.2-2.9-22.6
		c-2.7-6.3-6.5-15.3-17.2-19.2c-10.8-4-23.7-0.9-31.3,4.7c-5.6,4.1-7.2,8.9-10.5,18.2c-4.2,11.9-4.4,21.9-4.4,26.9
		c-0.1,6.2,0.4,15.6,1.1,27.3c0,0.4,0,0.6,0,0.7c0.5,8.6,0.3,37.4-1.5,104.1C454.7,1217.1,476.5,1217,498.3,1216.9z"/>
	<path class="st4" d="M434.2,1028.1c1.4-0.7,2.8-1.4,4.2-2.1c1.8,6.4,4.7,11.5,9.2,13c1.7,0.5,2.5,0.2,4.2,0.8
		c6.1,1.8,9,9.1,10.1,11.8c4.8,11.6,13.5,21.1,19.5,32.2c14.4,26.5,14.5,26.6,15.3,28.5c4.9,11.6,12.6,33.9,8.2,36.4
		c-4.9,2.8-23.1-20.5-25.4-23.5c-4.8-6.1-4.5-6.7-17.4-25.8c-7.3-10.8-8.8-12.7-13.1-19.5c-4.5-7.2-10-16.5-11.9-28.9
		c-0.2-1.4-0.5-3.5-0.6-6.3c1.1-1.2,2.3-2.3,3.4-3.5C438.1,1036.8,436.2,1032.5,434.2,1028.1z"/>
	<path class="st4" d="M523.9,1102.6c-2.5-4.9-5.2-8.2-8.4-12.3c-1.9-2.4-3.7-4.4-5.4-6.2c-7.3-7.5-14-12.7-18.3-16.1
		c-20.7-16.5-24.5-27.7-38.1-28.5c-1.6-0.1-2.9,0-3.7,0c1.4,0.3,3.7,0.9,5.8,2.5c1.4,1.1,2.6,2.4,4.6,6c2.3,4.1,2.7,5.8,4.3,9.1
		c1.2,2.5,2.8,4.9,6,9.8c2.4,3.7,4.8,7,7.2,10.8c0.8,1.2,1.8,2.9,2.9,4.8c0.3,0.5,0.7,1.3,1,1.8c0.8,1.5,1.5,2.7,1.9,3.5
		c1.4,2.2,2.7,3.9,3.7,5.2c1.1,1.4,3.4,4.1,6.6,7c1.3,1.2,1.3,1.1,2.8,2.4c1.3,1.2,3,2.9,4.8,4.8c1.1,1.2,1.9,2.1,3.1,3.6
		c0,0,3.6,4.4,6.6,8.5c8.8,11.9,13.2,23.1,16.1,22.4C531.1,1140.8,532.8,1120,523.9,1102.6z"/>
	<path class="st4" d="M463,1139.3c-1.2-4.9-2.2-10.6-2.2-10.6c-0.3-1.9-0.6-3.1-0.8-4.7c-0.7-5.2-0.7-9.1-0.7-10.5
		c0-3.3-0.6-8.2-1.8-17.9c-0.1-1.1-0.3-2.1-0.4-3.2c-1-1.5-2.6-4.1-4.6-7.3c-5-7.8-6.4-10-8.6-14c-2-3.7-3.1-5.9-3.9-8.2
		c-0.4-1.1-1.3-3.4-1.9-6.3c-1.6-7.1-0.7-11.8-1.4-11.9c-0.4-0.1-1.4,1.8-3.6,10.6c0,1.9,0,4.7,0.1,8.2c0.6,14.4,2.7,16.4,3.3,27.8
		c0.6,10.1-0.7,13.2,0.5,24.5c0.3,2.5,0.6,5.2,1.3,8.2c1,5.1,1.9,9.3,4,14.4c7.6,18,24.5,30.1,27.6,27.8
		C472.1,1164.3,466.4,1153.8,463,1139.3z"/>
	<g>
		<g>
			<path class="st18" d="M519,1065.1c13.6-64.4,176.7-72.4,193.7,6.6"/>
			<g>
				<polygon points="696.9,1068.6 713.8,1093.3 726.8,1066.3 				"/>
			</g>
		</g>
	</g>
	<path class="st1" d="M469.1,1296.5"/>
	<path class="st4" d="M710.2,1160.5c0.6,0,1.3,0,1.9,0c-0.5,2.2-0.5,4.1,0.9,5.2c0.5,0.4,0.8,0.4,1.4,0.9c1.9,1.5,1.5,4,1.4,5
		c-0.4,4.1,0.9,8.2,1,12.3c0.2,9.9,0.3,10,0.2,10.6c-0.4,4.1-1.8,11.8-3.8,11.9c-2.3,0.1-4.5-9.5-4.8-10.7
		c-0.6-2.5-0.4-2.6-1.5-10.1c-0.6-4.2-0.8-5-1.1-7.7c-0.3-2.8-0.5-6.3,1.1-10.2c0.2-0.4,0.5-1.1,1-1.9c0.6-0.2,1.2-0.3,1.9-0.5
		C710,1163.6,710.1,1162,710.2,1160.5z"/>
	<path class="st4" d="M731.6,1192c-2-1-3.1-2.2-4.5-3.7c-3.1-3.5-4.3-7.2-4.8-8.9c0,0,0,0,0,0c-3.1-7.7-3.5-10.8-7.2-12.6
		c-0.5-0.3-1-0.4-1.3-0.5c0.5,0.3,1.2,0.8,1.6,1.6c0.3,0.5,0.5,1.1,0.5,2.5c0.1,1.5-0.1,2.1-0.2,3.3c0,0.9,0.1,1.9,0.3,3.8
		c0.2,1.4,0.4,2.8,0.6,4.2c0.1,0.5,0.1,1.1,0.2,1.8c0,0.2,0,0.5,0,0.7c0,0.8,0,1.2,0,1.3c0,1,0.9,2.1,1.2,2.5c3,3.7,4.5,5.5,6.2,6.5
		c3.2,1.9,6.4,2.2,9.3,2.5c7,0.7,13.7-0.7,13.6-1.5c0-0.2-0.5-0.3-9.5-1.8C734.5,1192.9,733.2,1192.7,731.6,1192z"/>
	<path class="st4" d="M688.5,1197.5c1.9-0.3,3.9-0.7,6.3-1.8c1.3-0.5,3.7-1.6,5.9-3.6c0.3-0.3,1.5-1.4,2.5-3c0.6-1,1.3-2.5,2.7-5.5
		c0.2-0.3,0.3-0.7,0.4-1c-0.1-0.6-0.2-1.6-0.3-2.8c-0.3-3-0.5-3.9-0.5-5.4c0-1.4,0-2.2,0.1-3c0.1-0.4,0.2-1.2,0.5-2.1
		c0.7-2.3,1.9-3.5,1.7-3.7c-0.1-0.1-0.8,0.3-3.3,2.6c-0.4,0.5-0.9,1.4-1.5,2.4c-2.5,4.3-2.1,5.2-4,8.6c-1.1,1.9-1.7,3.4-3.2,5
		c-1.3,1.4-2.6,2.3-4.2,3.5c-1.8,1.3-3.2,2.1-3.9,2.5c-2.1,1.3-10.3,6.1-9.4,7.7C679.2,1199.2,685.9,1198,688.5,1197.5z"/>
	<path class="st5" d="M708.5,1158.8c0.4,0.6,1.8,2.5,1.1,4.7c-0.5,1.4-1.6,2.1-2,2.4c-10.3,5-20.7,9.9-31,14.9
		c-0.5,0-1.2-0.1-1.9-0.5c-0.4-0.2-0.8-0.4-1-0.6c-5.3-8.1-10.5-16.1-15.8-24.2c-0.4-1-1.5-1.5-2.4-1.1l-3.1,1.2
		c-1,0.4-1.5,1.5-1.1,2.5l10,26.6c0.4,1-0.1,2.1-1.1,2.4l-35.6,13.4c-0.6,0.2-1.3,0.1-1.9-0.3c-2.1-1.8-3.8-5.1-2.9-8.2
		c0.9-3.1,4.1-5.4,7.9-5.6c0.6-0.9,1.2-1.7,1.8-2.6c-10.1-26.8-20.1-53.7-30.2-80.5c-3.5-15.6,4.1-31.1,17.1-36.8
		c15.2-6.7,34.8,1.2,42,18.7c1.8,4.3,3.2,7.9,4.8,11.9c10.2,25.8,10.5,33.7,17.4,47.4c1.8,3.5,4.6,8.7,8.8,14.9
		c1.4,0,2.7-0.1,4.1-0.1c0.5-0.4,6.1-4.9,11.2-3.1C705.4,1156.4,707.2,1157,708.5,1158.8z"/>
	<path class="st0" d="M613.6,1085.6c-3.3,1.1-4.7,5.8-3.2,9.2c1.3,3,5,5.3,8.1,4c2.9-1.3,3.7-5.3,2.9-8.1
		C620.3,1087.3,616.7,1084.5,613.6,1085.6z"/>
	<path class="st2" d="M611.4,1087c-1.3,2,0.1,5.7,2.5,6.2c1.3,0.3,2.8-0.3,3.5-1.4c1.3-2.1-0.3-5.8-2.8-6.2
		C613.4,1085.4,612.1,1086,611.4,1087z"/>
	<path class="st0" d="M633.9,1077.9c-3.3,1.1-4.7,5.8-3.2,9.2c1.3,3,5,5.3,8.1,4c2.9-1.3,3.7-5.3,2.9-8.1
		C640.7,1079.7,637.1,1076.9,633.9,1077.9z"/>
	<path class="st2" d="M632,1079.3c-1.3,2,0.1,5.7,2.5,6.2c1.3,0.3,2.8-0.3,3.5-1.4c1.3-2.1-0.3-5.8-2.8-6.2
		C634.1,1077.7,632.7,1078.3,632,1079.3z"/>
	<path class="st0" d="M645.7,1109.5c-6.3,1.7-12.5,3.5-18.8,5.2c-0.4-1-1.1-3.6,0.1-5.7c1.1-1.9,3.4-2.3,8-3.2
		c4.6-0.9,7.3-1.3,9.1,0.3C645.2,1107.1,645.6,1108.5,645.7,1109.5z"/>
	<path class="st3" d="M667.8,1083.8"/>
	<path class="st12" d="M630.4,1097.1"/>
	<path class="st12" d="M630.4,1097.1"/>
	<line class="st1" x1="668.3" y1="839.8" x2="726.5" y2="840.1"/>
	<line class="st1" x1="12.7" y1="435.8" x2="14.3" y2="508.5"/>
	<line class="st1" x1="506.7" y1="179.2" x2="506.4" y2="266.4"/>
</g>
<g id="Layer_3">
</g>
<g id="Layer_2">
</g>
</svg>
