<?xml version="1.0" encoding="utf-8"?>
<!-- Generator: Adobe Illustrator 25.2.0, SVG Export Plug-In . SVG Version: 6.00 Build 0)  -->
<svg version="1.1" id="Layer_1" xmlns="http://www.w3.org/2000/svg" xmlns:xlink="http://www.w3.org/1999/xlink" x="0px" y="0px"
	 viewBox="0 0 792 1224" style="enable-background:new 0 0 792 1224;" xml:space="preserve">
<style type="text/css">
	.st0{stroke:#000000;stroke-miterlimit:10;}
	.st1{stroke:#FFFFFF;stroke-width:3;stroke-miterlimit:10;}
	.st2{fill:none;}
	.st3{stroke:#FFFFFF;stroke-width:0.25;stroke-miterlimit:10;}
	.st4{font-family:'Helvetica';}
	.st5{font-size:72px;}
	.st6{fill:#FFFFFF;}
	.st7{font-family:'BodoniURW-Reg';}
	.st8{font-size:54px;}
	.st9{font-size:65px;}
	.st10{font-size:48px;}
	.st11{fill:#FFFFFF;stroke:#000000;stroke-miterlimit:10;}
	.st12{stroke:#FFFFFF;stroke-miterlimit:10;}
	.st13{font-size:347px;}
	.st14{font-family:'Helvetica-Bold';}
	.st15{font-size:280px;}
	.st16{font-family:'Helvetica-BoldOblique';}
	.st17{font-size:215px;}
	.st18{font-family:'Helvetica-Light';}
	.st19{stroke:#FFFFFF;stroke-width:4.0149;stroke-miterlimit:10;}
</style>
<rect class="st0" width="792" height="1224"/>
<rect x="49" y="838.7" class="st1" width="343.7" height="343.7"/>
<rect x="49" y="825.8" class="st2" width="341.5" height="343.7"/>
<text transform="matrix(1 0 0 1 59.5984 877.5995)"><tspan x="0" y="0" class="st3 st4 st5">aaaaaaaa</tspan><tspan x="0" y="86.4" class="st3 st4 st5">aaaaaaaa</tspan><tspan x="0" y="172.8" class="st3 st4 st5">aaaaaaaa</tspan><tspan x="0" y="259.2" class="st3 st4 st5">aaaaaaaa</tspan></text>
<rect x="49" y="870" class="st2" width="341.5" height="343.7"/>
<text transform="matrix(1 0 0 1 59.5984 921.8046)"><tspan x="0" y="0" class="st3 st4 st5">aaaaaaaa</tspan><tspan x="0" y="86.4" class="st3 st4 st5">aaaaaaaa</tspan><tspan x="0" y="172.8" class="st3 st4 st5">aaaaaaaa</tspan><tspan x="0" y="259.2" class="st3 st4 st5">aaaaaaaa</tspan></text>
<rect x="682.5" y="445.8" class="st2" width="157.8" height="231.2"/>
<text transform="matrix(0 -1 1 0 718.4844 677.0469)" class="st6 st7 st8">1798</text>
<rect x="741.6" y="480" class="st2" width="157.8" height="231.2"/>
<text transform="matrix(0 -1 1 0 784.9121 711.2676)" class="st6 st7 st9">Bodoni</text>
<rect x="-80" y="565.4" class="st2" width="189.1" height="239.1"/>
<text transform="matrix(0 1 -1 0 74.5039 565.4216)" class="st6 st4 st10">1957 </text>
<rect x="-140.1" y="523.8" class="st2" width="189.1" height="239.1"/>
<text transform="matrix(0 1 -1 0 14.4844 523.7578)" class="st6 st4 st10">Helvetica </text>
<rect x="-2" y="33.5" class="st2" width="798.9" height="511.8"/>
<text transform="matrix(1 0 0 1 -1.2215 81.5508)"><tspan x="0" y="0" class="st11 st7 st5">aaaaaaaaaaaaaaaaaaaaaaaaa</tspan><tspan x="0" y="86.4" class="st11 st7 st5">aaaaaaaaaaaaaaaaaaaaaaaaa</tspan><tspan x="0" y="172.8" class="st11 st7 st5">aaaaaaaaaaaaaaaaaaaaaaaaa</tspan><tspan x="0" y="259.2" class="st11 st7 st5">aaaaaaaaaaaaaaaaaaaaaaaaa</tspan><tspan x="0" y="345.6" class="st11 st7 st5">aaaaaaaaaaaaaaaaaaaaaaaaa</tspan></text>
<rect x="-3" y="-9.6" class="st2" width="798.9" height="479.3"/>
<text transform="matrix(1 0 0 1 -2.2407 38.4562)"><tspan x="0" y="0" class="st11 st7 st5">aaaaaaaaaaaaaaaaaaaaaaaaa</tspan><tspan x="0" y="86.4" class="st11 st7 st5">aaaaaaaaaaaaaaaaaaaaaaaaa</tspan><tspan x="0" y="172.8" class="st11 st7 st5">aaaaaaaaaaaaaaaaaaaaaaaaa</tspan><tspan x="0" y="259.2" class="st11 st7 st5">aaaaaaaaaaaaaaaaaaaaaaaaa</tspan><tspan x="0" y="345.6" class="st11 st7 st5">aaaaaaaaaaaaaaaaaaaaaaaaa</tspan></text>
<rect x="-0.9" y="420.9" class="st2" width="798.9" height="76.1"/>
<text transform="matrix(1 0 0 1 -0.1474 468.951)" class="st11 st7 st5">aaaaaaaaaaaaaaaaaaaaaaaaa</text>
<rect x="440" y="849.3" class="st2" width="251.6" height="259.4"/>
<text transform="matrix(1 0 0 1 440.0098 1080.7021)" class="st12 st7 st13">A</text>
<rect x="104" y="94.5" class="st2" width="271" height="297.7"/>
<text transform="matrix(1 0 0 1 104.0342 344.0225)" class="st6 st14 st13">A</text>
<rect x="642.6" y="995.6" class="st2" width="251.6" height="259.4"/>
<text transform="matrix(1 0 0 1 642.5918 1182.3945)" class="st6 st7 st15">a</text>
<rect x="14.5" y="0.7" class="st2" width="239.1" height="189.1"/>
<text transform="matrix(1 0 0 1 14.4843 155.2778)" class="st12 st16 st17">a</text>
<rect x="-34.1" y="480.4" class="st6" width="895.4" height="8.8"/>
<rect x="-50.7" y="758.4" class="st6" width="895.4" height="8.8"/>
<rect x="23.1" y="814.1" class="st2" width="271" height="297.7"/>
<text transform="matrix(1 0 0 1 23.0829 1063.9426)" class="st12 st18 st13">A</text>
<rect x="294.1" y="804.5" class="st2" width="239.1" height="189.1"/>
<text transform="matrix(1 0 0 1 294.1083 959.0681)" class="st11 st16 st17">a</text>
<circle class="st19" cx="570.1" cy="205.4" r="191.3"/>
<rect x="397" y="205.4" class="st2" width="251.6" height="259.4"/>
<text transform="matrix(1 0 0 1 397.0376 436.8276)" class="st11 st7 st13">A</text>
<rect x="613.9" y="2.4" class="st2" width="181.1" height="200.5"/>
<text transform="matrix(1 0 0 1 613.8915 189.1801)" class="st12 st7 st15">a</text>
</svg>
